<svg xmlns="http://www.w3.org/2000/svg" width="63.804" height="82.939" viewBox="0 0 63.804 82.939">
  <path id="Path_6" data-name="Path 6" d="M37.89,3C32.521,3,27.773,5.611,23.87,9.351a50.192,50.192,0,0,0-9.714,13.92C8.954,33.743,6,44.134,6,53.653c0,10.118,2.684,18.893,8.524,24.338,5.656,5.274,13.742,7.951,23.366,7.951h.025c9.624,0,17.71-2.677,23.366-7.951,5.84-5.445,8.524-14.219,8.524-24.338,0-9.518-2.954-19.91-8.156-30.382a50.214,50.214,0,0,0-9.714-13.92C48.031,5.611,43.284,3,37.915,3Zm0,3.19h.025c4.339,0,8.3,2.095,11.808,5.458a47.432,47.432,0,0,1,9.072,13.041A87.72,87.72,0,0,1,63.1,34.9H59.044a17.927,17.927,0,0,0-1.72-4.007,1.584,1.584,0,0,0-1.8-.729l-14.15,3.919a6.8,6.8,0,0,0-6.848.031l-14.25-3.95A1.6,1.6,0,0,0,19.8,30.1v.006a1.6,1.6,0,0,0-1.327.785,17.91,17.91,0,0,0-1.72,4.007H12.7A87.719,87.719,0,0,1,17.01,24.692,47.431,47.431,0,0,1,26.082,11.65C29.591,8.287,33.551,6.192,37.89,6.192Zm-4.76,6.374a1.6,1.6,0,0,0-.723.168,19.019,19.019,0,0,0-4.916,3.508,36.9,36.9,0,0,0-6.848,9.608,1.6,1.6,0,1,0,2.835,1.464A33.981,33.981,0,0,1,29.7,18.542h.006a15.9,15.9,0,0,1,4.081-2.929,1.6,1.6,0,0,0-.66-3.047ZM20.917,33.645l10.991,3.047a6.52,6.52,0,0,0-.069,6.611L20.917,46.338A14.413,14.413,0,0,1,20.917,33.645Zm33.965.006a14.415,14.415,0,0,1,0,12.692L48.1,44.462l-.031-.006-.075-.025-3.913-1.084a6.71,6.71,0,0,0,.891-3.277v-.006a6.728,6.728,0,0,0-.947-3.4Zm-16.911,2.71a4.091,4.091,0,0,1,2.816,1.246,3.663,3.663,0,0,1,.611.885,3.574,3.574,0,0,1,.131.336,3.621,3.621,0,0,1,.249,1.221s0,.015,0,.019a3.6,3.6,0,0,1-.255,1.265c-.032.083-.056.169-.093.249a3.659,3.659,0,0,1-.648.941c-.085.091-.173.178-.268.262a3.752,3.752,0,0,1-.947.617c-.086.039-.179.067-.268.1a3.712,3.712,0,0,1-3.365-.386,3.805,3.805,0,0,1-.517-.337q-.134-.119-.256-.249a3.665,3.665,0,0,1-.648-.947c-.037-.08-.056-.167-.087-.249a3.23,3.23,0,0,1,0-2.548c.033-.086.054-.178.093-.262a3.66,3.66,0,0,1,.654-.947,3.723,3.723,0,0,1,.274-.255A3.807,3.807,0,0,1,37.971,36.362ZM13.39,38.088h2.723a17.849,17.849,0,0,0-.037,3.19H12.287Zm46.3,0h2.692l1.128,3.19H59.723A17.819,17.819,0,0,0,59.685,38.088Zm-49.56,6.38h6.449a17.95,17.95,0,0,0,1.9,4.63,1.6,1.6,0,0,0,1.8.729l4.573-1.271-2.692,4.567a1.6,1.6,0,0,0,1.782,2.349l3.1-.816.822,3.009a1.6,1.6,0,0,0,2.916.386l6.573-11.159c.206.018.406.062.617.062.164,0,.318-.039.48-.05l6.567,11.147a1.6,1.6,0,0,0,2.916-.386l.816-3.009,3.1.816a1.6,1.6,0,0,0,1.782-2.349l-2.692-4.567,4.58,1.271a1.6,1.6,0,0,0,1.8-.729,17.955,17.955,0,0,0,1.9-4.63h6.455a49.735,49.735,0,0,1,.935,9.184c0,9.549-2.579,17.406-7.515,22.007S46.95,82.751,37.915,82.751H37.89c-9.036,0-16.244-2.483-21.185-7.091S9.19,63.2,9.19,53.653A49.732,49.732,0,0,1,10.125,44.468Zm24.07,1.5-4.249,7.215-.243-.885a1.6,1.6,0,0,0-1.944-1.121l-.885.224,2.393-4.069Zm7.409.006,4.916,1.358,2.4,4.075-.885-.23a1.6,1.6,0,0,0-1.944,1.121l-.237.879Z" transform="translate(-6 -3.002)" fill="#161616"/>
</svg>
